<?xml version="1.0" standalone="no"?>
<!DOCTYPE svg PUBLIC "-//W3C//DTD SVG 20010904//EN"
 "http://www.w3.org/TR/2001/REC-SVG-20010904/DTD/svg10.dtd">
<svg version="1.0" xmlns="http://www.w3.org/2000/svg"
 width="180.000000pt" height="180.000000pt" viewBox="0 0 980.000000 982.000000"
 preserveAspectRatio="xMidYMid meet">
<metadata>
Created by potrace 1.15, written by Peter Selinger 2001-2017
</metadata>
<g transform="translate(0.000000,982.000000) scale(0.100000,-0.100000)"
fill="#000000" stroke="none">
<path d="M4610 9804 c-207 -18 -294 -27 -415 -45 -1220 -176 -2356 -831 -3131
-1805 -594 -748 -944 -1622 -1046 -2614 -17 -162 -17 -695 0 -860 83 -809 336
-1547 759 -2212 176 -277 286 -418 533 -683 348 -374 651 -623 1048 -862 623
-374 1312 -606 2054 -690 217 -25 771 -24 983 0 608 72 1108 215 1630 467 795
384 1466 966 1950 1690 458 687 724 1439 807 2285 19 197 16 702 -6 905 -64
603 -218 1143 -475 1675 -256 530 -514 890 -945 1320 -375 374 -680 603 -1123
844 -554 301 -1164 489 -1833 567 -128 14 -682 27 -790 18z m730 -260 c886
-83 1708 -403 2410 -937 748 -570 1304 -1355 1598 -2257 403 -1234 271 -2569
-367 -3715 -259 -465 -599 -880 -1027 -1255 -723 -632 -1667 -1026 -2659
-1110 -155 -13 -566 -13 -720 0 -954 81 -1831 426 -2557 1007 -1294 1035
-1936 2662 -1697 4303 192 1321 940 2495 2056 3224 331 216 667 379 1053 510
627 214 1264 291 1910 230z"/>
<path d="M3520 7510 c-47 -4 -105 -15 -129 -24 -175 -64 -323 -225 -376 -409
-74 -255 98 -546 370 -627 24 -7 161 -15 335 -20 334 -10 434 -19 640 -60 645
-129 1243 -539 1632 -1120 102 -153 229 -404 283 -559 98 -287 131 -507 145
-971 6 -212 12 -288 25 -330 72 -233 266 -380 500 -380 148 0 269 53 386 170
142 140 158 192 166 510 9 347 -16 661 -73 932 -106 503 -383 1078 -730 1513
-112 141 -438 466 -575 574 -304 239 -596 411 -889 526 -281 110 -651 215
-850 240 -250 32 -702 50 -860 35z m720 -410 c209 -20 346 -49 570 -122 918
-296 1670 -976 2047 -1853 182 -421 239 -714 250 -1280 6 -338 3 -365 -52
-414 -49 -43 -94 -49 -152 -20 -80 41 -83 51 -99 406 -20 466 -43 607 -146
922 -333 1020 -1088 1721 -2143 1991 -216 55 -324 69 -650 80 -159 6 -314 15
-343 20 -69 12 -107 40 -127 94 -30 79 16 169 94 181 20 4 43 8 51 10 28 8
595 -4 700 -15z"/>
<path d="M3629 6110 c-191 -22 -372 -154 -459 -335 -110 -230 -31 -505 189
-658 89 -61 139 -70 510 -97 238 -17 374 -56 541 -154 315 -185 512 -461 585
-821 9 -44 20 -168 25 -275 11 -236 15 -258 51 -336 101 -216 340 -338 569
-290 216 45 388 204 445 411 23 83 30 305 16 451 -49 480 -224 914 -512 1271
-141 174 -367 371 -569 496 -93 57 -320 166 -420 202 -120 43 -325 93 -465
115 -150 23 -396 33 -506 20z m369 -391 c439 -47 822 -226 1136 -529 331 -320
526 -716 575 -1172 21 -187 10 -372 -24 -439 -32 -61 -148 -77 -214 -30 -57
41 -64 68 -72 271 -8 200 -25 319 -65 457 -73 254 -190 456 -374 647 -197 204
-425 342 -693 420 -138 40 -258 57 -458 65 -157 6 -192 11 -219 27 -56 33 -75
67 -75 139 0 54 4 67 25 90 14 15 33 31 44 37 50 27 249 35 414 17z"/>
<path d="M3765 4634 c-11 -2 -45 -9 -75 -15 -30 -6 -93 -28 -138 -50 -264
-122 -434 -347 -473 -623 -43 -308 147 -635 456 -786 185 -89 387 -104 560
-39 133 50 348 233 427 364 118 196 128 513 23 715 -102 192 -322 362 -537
414 -68 17 -208 28 -243 20z m223 -414 c106 -23 194 -111 228 -228 12 -39 15
-83 12 -156 -3 -91 -7 -110 -36 -168 -38 -77 -92 -130 -171 -167 -50 -23 -68
-26 -166 -26 -91 0 -120 4 -167 23 -80 32 -150 99 -190 180 -31 63 -33 72 -33
177 0 104 2 114 32 175 35 71 103 149 153 175 17 9 50 20 73 25 51 11 193 5
265 -10z"/>
</g>
</svg>
